<svg xmlns="http://www.w3.org/2000/svg" width="61.018" height="61.5" viewBox="0 0 61.018 61.5">
  <g id="noun-vaccine-side-effects-4287274" transform="translate(-14.4 -12.5)">
    <path id="Path_10272" data-name="Path 10272" d="M49.407,58.543l.8-2.331A5.112,5.112,0,0,0,49,50.979l-1.356-1.356A3.056,3.056,0,0,1,46.8,48l-1.216-6.867A16.157,16.157,0,0,0,34.444,28.477L30.022,27.1a5.05,5.05,0,0,1-3.294-3.231l-.241-.735a5,5,0,0,1,.279-3.864l2.927-5.854L27.881,12.5l-2.927,5.841a7.018,7.018,0,0,0-.38,5.423l.241.735a7.141,7.141,0,0,0,3.864,4.244L27.3,30.023a14.263,14.263,0,0,1-12.493,3.472L14.4,35.483a16.6,16.6,0,0,0,3.256.329,16.292,16.292,0,0,0,11.023-4.3l2.192-2.027,2.977.925c.165.051.329.1.494.165l-3.205,4.409a16.2,16.2,0,0,0-2.623,13.468L34.9,74l1.964-.494L30.478,47.963A14.1,14.1,0,0,1,32.771,36.18L36.243,31.4a14.164,14.164,0,0,1,7.349,10.085l1.216,6.867a5.025,5.025,0,0,0,1.406,2.7L47.57,52.41a3.036,3.036,0,0,1,.722,3.142l-.8,2.331a5.224,5.224,0,0,0-.177,2.686l2.775,13.4,1.989-.418-2.775-13.4A3.026,3.026,0,0,1,49.407,58.543Z" transform="translate(0 0)" fill="#163c94"/>
    <rect id="Rectangle_17059" data-name="Rectangle 17059" width="2.027" height="2.027" transform="translate(35.888 43.351)" fill="#163c94"/>
    <rect id="Rectangle_17060" data-name="Rectangle 17060" width="2.027" height="2.027" transform="translate(33.861 48.419)" fill="#163c94"/>
    <rect id="Rectangle_17061" data-name="Rectangle 17061" width="2.027" height="2.027" transform="translate(39.943 46.392)" fill="#163c94"/>
    <rect id="Rectangle_17062" data-name="Rectangle 17062" width="2.027" height="2.027" transform="translate(41.97 52.474)" fill="#163c94"/>
    <rect id="Rectangle_17063" data-name="Rectangle 17063" width="2.027" height="2.027" transform="translate(36.902 52.474)" fill="#163c94"/>
    <rect id="Rectangle_17064" data-name="Rectangle 17064" width="2.027" height="2.027" transform="translate(35.888 57.542)" fill="#163c94"/>
    <rect id="Rectangle_17065" data-name="Rectangle 17065" width="2.027" height="2.027" transform="translate(42.983 57.542)" fill="#163c94"/>
    <rect id="Rectangle_17066" data-name="Rectangle 17066" width="2.027" height="2.027" transform="translate(38.929 62.61)" fill="#163c94"/>
    <rect id="Rectangle_17067" data-name="Rectangle 17067" width="2.027" height="2.027" transform="translate(43.997 61.596)" fill="#163c94"/>
    <path id="Path_10273" data-name="Path 10273" d="M346.5,127.868l-1.242.824a3.021,3.021,0,0,0-1.356,2.534v6.006a3.05,3.05,0,0,0,3.041,3.041h6.082a3.05,3.05,0,0,0,3.041-3.041v-6.006a3.054,3.054,0,0,0-1.356-2.534l-1.229-.824a1.034,1.034,0,0,1-.456-.849v-.938a1.017,1.017,0,0,0,1.014-1.014v-2.027A3.05,3.05,0,0,0,351,120h-2.027a3.05,3.05,0,0,0-3.041,3.041v2.027a1.017,1.017,0,0,0,1.014,1.014v.938A.963.963,0,0,1,346.5,127.868Zm6.538,10.377h-6.082a1.017,1.017,0,0,1-1.014-1.014v-5.068h8.109v5.068A1.017,1.017,0,0,1,353.035,138.245Zm-5.068-15.2a1.017,1.017,0,0,1,1.014-1.014h2.027a1.017,1.017,0,0,1,1.014,1.014v1.014h-4.054Zm-.342,6.512a3.021,3.021,0,0,0,1.356-2.534v-.938h2.027v.938a3.054,3.054,0,0,0,1.356,2.534l.874.583h-6.487Z" transform="translate(-287.752 -93.88)" fill="#163c94"/>
    <rect id="Rectangle_17068" data-name="Rectangle 17068" width="4.054" height="2.027" transform="translate(60.215 40.311)" fill="#163c94"/>
    <path id="Path_10274" data-name="Path 10274" d="M193.512,16A21.292,21.292,0,0,0,174,28.771l1.862.811a19.258,19.258,0,1,1,17.649,26.962c-.646,0-1.292-.038-1.926-.1l-.2,2.015c.7.063,1.419.1,2.129.1a21.279,21.279,0,1,0,0-42.558Z" transform="translate(-139.379 -3.057)" fill="#163c94"/>
    <path id="Path_10275" data-name="Path 10275" d="M324.054,376A4.05,4.05,0,0,1,320,380.054v2.027A6.083,6.083,0,0,0,326.082,376Z" transform="translate(-266.881 -317.445)" fill="#163c94"/>
    <path id="Path_10276" data-name="Path 10276" d="M360,410.027v2.027A4.05,4.05,0,0,0,364.054,408h-2.027A2.033,2.033,0,0,1,360,410.027Z" transform="translate(-301.813 -345.39)" fill="#163c94"/>
    <path id="Path_10277" data-name="Path 10277" d="M282.027,56v6.677l-1.14,1.14A3.038,3.038,0,0,0,280,65.971V80.326a1.017,1.017,0,0,0,1.014,1.014h1.014v2.027h-1.014v2.027h4.054V83.367h-1.014V81.34h1.014a1.017,1.017,0,0,0,1.014-1.014V65.959a3.038,3.038,0,0,0-.887-2.154l-1.14-1.14V56Zm2.027,23.313h-2.027V65.959a1.026,1.026,0,0,1,.291-.722l.722-.722.722.722a1,1,0,0,1,.291.722Z" transform="translate(-231.949 -37.989)" fill="#163c94"/>
    <rect id="Rectangle_17069" data-name="Rectangle 17069" width="2.027" height="2.027" transform="translate(38.929 39.297)" fill="#163c94"/>
  </g>
</svg>
