<svg xmlns="http://www.w3.org/2000/svg" width="54.584" height="59.908" viewBox="0 0 54.584 59.908">
  <g id="Group_4185" data-name="Group 4185" transform="translate(-582.54 -418.328)">
    <path id="Vector" d="M2,11.982a2.012,2.012,0,0,1-2-2V2A2.012,2.012,0,0,1,2,0a2.012,2.012,0,0,1,2,2V9.985A2.012,2.012,0,0,1,2,11.982Z" transform="translate(595.853 418.328)" fill="#163c94"/>
    <path id="Vector-2" data-name="Vector" d="M2,11.982a2.012,2.012,0,0,1-2-2V2A2.012,2.012,0,0,1,2,0a2.012,2.012,0,0,1,2,2V9.985A2.012,2.012,0,0,1,2,11.982Z" transform="translate(617.154 418.328)" fill="#163c94"/>
    <path id="Vector-3" data-name="Vector" d="M2.663,5.292A2.8,2.8,0,0,1,.772,4.52,2.75,2.75,0,0,1,0,2.629,2.65,2.65,0,0,1,.213,1.618,3.074,3.074,0,0,1,.772.739a2.788,2.788,0,0,1,3.781,0,2.8,2.8,0,0,1,.772,1.89,4,4,0,0,1-.053.533,1.692,1.692,0,0,1-.16.479,2.016,2.016,0,0,1-.24.479l-.32.4A2.8,2.8,0,0,1,2.663,5.292Z" transform="translate(596.519 448.316)" fill="#163c94"/>
    <path id="Vector-4" data-name="Vector" d="M2.663,5.31A2.65,2.65,0,0,1,1.651,5.1a2.749,2.749,0,0,1-.879-.559A2.75,2.75,0,0,1,0,2.648,2.65,2.65,0,0,1,.213,1.636,3.074,3.074,0,0,1,.772.757,2.749,2.749,0,0,1,1.651.2a2.709,2.709,0,0,1,2.9.559,2.8,2.8,0,0,1,.772,1.89,4,4,0,0,1-.053.533,1.692,1.692,0,0,1-.16.479,2.016,2.016,0,0,1-.24.479,4.2,4.2,0,0,1-.32.4A2.8,2.8,0,0,1,2.663,5.31Z" transform="translate(605.838 448.297)" fill="#163c94"/>
    <path id="Vector-5" data-name="Vector" d="M2.663,5.322a2.65,2.65,0,0,1-1.012-.213A2.485,2.485,0,0,1,.772,4.55a2.485,2.485,0,0,1-.559-.879A2.65,2.65,0,0,1,0,2.659,2.65,2.65,0,0,1,.213,1.648,2.485,2.485,0,0,1,.772.769,2.485,2.485,0,0,1,1.651.21a2.546,2.546,0,0,1,2.024,0,2.485,2.485,0,0,1,.879.559,2.485,2.485,0,0,1,.559.879,2.65,2.65,0,0,1,.213,1.012,2.65,2.65,0,0,1-.213,1.012A2.4,2.4,0,0,1,3.674,5.109,2.65,2.65,0,0,1,2.663,5.322Z" transform="translate(596.519 457.605)" fill="#163c94"/>
    <path id="Vector-6" data-name="Vector" d="M47.261,3.994H2A2.012,2.012,0,0,1,0,2,2.012,2.012,0,0,1,2,0H47.261a2.012,2.012,0,0,1,2,2A2.012,2.012,0,0,1,47.261,3.994Z" transform="translate(583.871 437.207)" fill="#163c94"/>
    <path id="Vector-7" data-name="Vector" d="M12.647,25.295a12.356,12.356,0,0,1-8.334-3.169,11.468,11.468,0,0,1-2.5-2.982A12.5,12.5,0,0,1,0,12.647a12.647,12.647,0,0,1,25.295,0,12.441,12.441,0,0,1-1.837,6.523A12.6,12.6,0,0,1,12.647,25.295Zm0-21.3a8.67,8.67,0,0,0-8.654,8.654,8.437,8.437,0,0,0,1.251,4.447,7.822,7.822,0,0,0,1.677,2.024A8.449,8.449,0,0,0,12.647,21.3,8.666,8.666,0,0,0,21.3,12.647a8.844,8.844,0,0,0-2.157-5.725A8.687,8.687,0,0,0,12.647,3.994Z" transform="translate(611.829 452.941)" fill="#163c94"/>
    <path id="Vector-8" data-name="Vector" d="M4.626,9.234a1.975,1.975,0,0,1-1.411-.586L.579,6.012A2,2,0,1,1,3.4,3.19L4.68,4.468,8.94.527a2,2,0,0,1,2.716,2.929L5.984,8.7A2.083,2.083,0,0,1,4.626,9.234Z" transform="translate(618.332 460.988)" fill="#163c94"/>
    <path id="Vector-9" data-name="Vector" d="M34.934,53.252H15.31C5.591,53.252,0,47.661,0,37.942V15.31C0,5.591,5.591,0,15.31,0h21.3c9.719,0,15.31,5.591,15.31,15.31V36.238a2.005,2.005,0,0,1-3.515,1.3,8.659,8.659,0,0,0-15.15,5.725,8.437,8.437,0,0,0,1.251,4.447,7.822,7.822,0,0,0,1.677,2.024,1.98,1.98,0,0,1,.586,2.21A1.9,1.9,0,0,1,34.934,53.252ZM15.31,3.994c-7.615,0-11.316,3.7-11.316,11.316V37.942c0,7.615,3.7,11.316,11.316,11.316h15.5a12.512,12.512,0,0,1-1.518-5.991,12.634,12.634,0,0,1,18.638-11.13V15.31c0-7.615-3.7-11.316-11.316-11.316Z" transform="translate(582.54 422.322)" fill="#163c94"/>
  </g>
</svg>
