<svg xmlns="http://www.w3.org/2000/svg" width="51" height="53.881" viewBox="0 0 51 53.881">
  <path id="post_treatment" data-name="post treatment" d="M119.542-800.551l-2.017-1.512v-12.462H110.9a2.054,2.054,0,0,1-1.513-.5,2.055,2.055,0,0,1-.5-1.513V-841.9h-1.873a.975.975,0,0,1-.719-.291.98.98,0,0,1-.29-.72.971.971,0,0,1,.29-.718.979.979,0,0,1,.719-.288h10.517v-8.068h-3.314a.974.974,0,0,1-.719-.291.98.98,0,0,1-.29-.72.971.971,0,0,1,.29-.718.979.979,0,0,1,.719-.288h8.644a.974.974,0,0,1,.719.291.98.98,0,0,1,.29.72.971.971,0,0,1-.29.718.979.979,0,0,1-.719.288h-3.314v8.068h10.517a.975.975,0,0,1,.719.291.98.98,0,0,1,.29.72.971.971,0,0,1-.29.718.979.979,0,0,1-.719.288h-1.873v25.356a2.055,2.055,0,0,1-.5,1.513,2.054,2.054,0,0,1-1.513.5h-6.627ZM110.9-816.542H126.17v-7.347h-6.915a.967.967,0,0,1-.706-.3.967.967,0,0,1-.3-.706.968.968,0,0,1,.3-.706.968.968,0,0,1,.706-.3h6.915v-6.627h-6.915a.967.967,0,0,1-.706-.3.968.968,0,0,1-.3-.706.967.967,0,0,1,.3-.706.967.967,0,0,1,.706-.3h6.915V-841.9H110.9Zm28.814,16.424a2.055,2.055,0,0,1-1.513-.5,2.055,2.055,0,0,1-.5-1.513v-20.6a5.834,5.834,0,0,1,.936-3.406,21.3,21.3,0,0,1,1.729-2.213,16.834,16.834,0,0,0,1.189-1.44,2.635,2.635,0,0,0,.468-1.585V-834.7h-1.873a.974.974,0,0,1-.719-.291.979.979,0,0,1-.29-.72.97.97,0,0,1,.29-.718.978.978,0,0,1,.719-.288h14.407a.974.974,0,0,1,.719.29.98.98,0,0,1,.29.72.971.971,0,0,1-.29.718.979.979,0,0,1-.719.288h-1.873v3.314a2.635,2.635,0,0,0,.468,1.585,16.835,16.835,0,0,0,1.189,1.44,22.091,22.091,0,0,1,1.729,2.2,5.77,5.77,0,0,1,.936,3.4v20.628a2.054,2.054,0,0,1-.5,1.513,2.054,2.054,0,0,1-1.513.5Zm0-20.025h15.271v-2.593a4.575,4.575,0,0,0-.648-2.521,14.543,14.543,0,0,0-1.585-2.017,15.047,15.047,0,0,1-1.415-1.718,4.02,4.02,0,0,1-.674-2.388V-834.7h-6.627v3.314a3.935,3.935,0,0,1-.684,2.367,20.015,20.015,0,0,1-1.4,1.739,14.543,14.543,0,0,0-1.585,2.017,4.574,4.574,0,0,0-.648,2.521Zm0,8.644h15.271v-6.627H139.712Zm0,9.364h15.271v-7.347H139.712Zm0-9.364h0Z" transform="translate(-106 854)" fill="#163c94"/>
</svg>
