<svg id="_3-Users-Add" data-name="3-Users-Add" xmlns="http://www.w3.org/2000/svg" width="54" height="54" viewBox="0 0 54 54">
  <path id="Path_10235" data-name="Path 10235" d="M3.375,48.938c0-1.316,3.24-2.869,5.467-3.375h.186l13.5-5.062a1.688,1.688,0,0,0,1.1-1.687V34.273a1.687,1.687,0,0,0-.962-1.519,10.125,10.125,0,0,1-5.788-9.129,1.687,1.687,0,0,0-1.688-1.688V18.563a1.687,1.687,0,0,0,1.688-1.687V13.5a10.125,10.125,0,1,1,20.25,0v3.375a1.688,1.688,0,0,0,1.688,1.688v3.375h3.375V18.563A3.375,3.375,0,0,0,40.5,15.643V13.5a13.5,13.5,0,1,0-27,0v2.143a3.375,3.375,0,0,0-1.687,2.919v3.375A3.375,3.375,0,0,0,13.5,24.891a13.618,13.618,0,0,0,6.75,10.4v2.346L7.931,42.188C6.4,42.576,0,44.5,0,48.938v3.375A1.688,1.688,0,0,0,1.687,54H25.313V50.625H3.375Z" fill="#163c94"/>
  <path id="Path_10236" data-name="Path 10236" d="M29.5,16A13.5,13.5,0,1,0,43,29.5,13.5,13.5,0,0,0,29.5,16Zm0,23.625A10.125,10.125,0,1,1,39.625,29.5,10.125,10.125,0,0,1,29.5,39.625Z" transform="translate(11 11)" fill="#163c94"/>
  <path id="Path_10237" data-name="Path 10237" d="M28.438,20H25.063v5.063H20v3.375h5.063V33.5h3.375V28.438H33.5V25.063H28.438Z" transform="translate(13.75 13.75)" fill="#163c94"/>
</svg>
