<svg xmlns="http://www.w3.org/2000/svg" width="54" height="54" viewBox="0 0 54 54">
  <path id="search" d="M169.8-786l-18.9-18.9a17.874,17.874,0,0,1-5.175,2.85A18.282,18.282,0,0,1,139.5-801a18.824,18.824,0,0,1-13.837-5.662A18.823,18.823,0,0,1,120-820.5a18.823,18.823,0,0,1,5.663-13.838A18.823,18.823,0,0,1,139.5-840a18.823,18.823,0,0,1,13.837,5.663A18.823,18.823,0,0,1,159-820.5a18.285,18.285,0,0,1-1.05,6.225,17.876,17.876,0,0,1-2.85,5.175L174-790.2Zm-30.3-21a13.02,13.02,0,0,0,9.563-3.937A13.02,13.02,0,0,0,153-820.5a13.018,13.018,0,0,0-3.937-9.562A13.018,13.018,0,0,0,139.5-834a13.019,13.019,0,0,0-9.563,3.938A13.018,13.018,0,0,0,126-820.5a13.02,13.02,0,0,0,3.938,9.563A13.02,13.02,0,0,0,139.5-807Z" transform="translate(-120 840)" fill="#163c94"/>
</svg>
