<svg id="_22-Users-Arrow_Up" data-name="22-Users-Arrow Up" xmlns="http://www.w3.org/2000/svg" width="56.616" height="61" viewBox="0 0 56.616 61">
  <path id="Path_10264" data-name="Path 10264" d="M19.063,19.063V15.25a11.438,11.438,0,1,1,22.875,0v3.812a1.906,1.906,0,0,0,1.906,1.906v3.813h3.813V20.969a3.812,3.812,0,0,0-1.906-3.3V15.25a15.25,15.25,0,1,0-30.5,0v2.421a3.813,3.813,0,0,0-1.906,3.3v3.813a3.812,3.812,0,0,0,1.906,3.336A15.383,15.383,0,0,0,22.875,39.86v2.65L8.959,47.656C7.225,48.095,0,50.268,0,55.281v3.813A1.906,1.906,0,0,0,1.906,61H28.594V57.188H3.813V55.281c0-1.487,3.66-3.241,6.176-3.812h.21l15.25-5.719a1.906,1.906,0,0,0,1.239-1.906V38.716A1.906,1.906,0,0,0,25.6,37a11.438,11.438,0,0,1-6.538-10.313,1.906,1.906,0,0,0-1.906-1.906V20.969A1.906,1.906,0,0,0,19.063,19.063Z" fill="#163c94"/>
  <path id="Path_10265" data-name="Path 10265" d="M33.7,17.554a1.906,1.906,0,0,0-2.688,0l-5.719,5.719,2.688,2.688L30.438,23.5V37.969H19v3.813H30.438a3.813,3.813,0,0,0,3.813-3.812V23.5l2.459,2.459L39.4,23.272Z" transform="translate(17.219 15.406)" fill="#163c94"/>
</svg>
